<svg width="135" height="84" viewBox="0 0 135 84" fill="none" xmlns="http://www.w3.org/2000/svg">
<path d="M128.526 0H5.97319C2.67429 0 0 2.67429 0 5.97319V77.5094C0 80.8083 2.67429 83.4826 5.97319 83.4826H128.526C131.825 83.4826 134.499 80.8083 134.499 77.5094V5.97319C134.499 2.67429 131.825 0 128.526 0Z" fill="#1A3C65"/>
<path d="M134.499 14.6092H0V29.9141H134.499V14.6092Z" fill="#1A3C65"/>
<path d="M134.499 14.6092H0V29.9141H134.499V14.6092Z" fill="white"/>
<path d="M121.746 41.2778H12.7554V48.698H121.746V41.2778Z" fill="#D6D6E3"/>
<path d="M21.7983 77.9187C27.6901 77.9187 32.4663 73.1425 32.4663 67.2507C32.4663 61.359 27.6901 56.5828 21.7983 56.5828C15.9066 56.5828 11.1304 61.359 11.1304 67.2507C11.1304 73.1425 15.9066 77.9187 21.7983 77.9187Z" fill="#1A3C65"/>
<path opacity="0.3" d="M21.7983 77.9187C27.6901 77.9187 32.4663 73.1425 32.4663 67.2507C32.4663 61.359 27.6901 56.5828 21.7983 56.5828C15.9066 56.5828 11.1304 61.359 11.1304 67.2507C11.1304 73.1425 15.9066 77.9187 21.7983 77.9187Z" fill="black"/>
</svg>
