<svg width="116" height="105" viewBox="0 0 116 105" fill="none" xmlns="http://www.w3.org/2000/svg">
<g clip-path="url(#clip0)">
<path d="M99.2113 9.65482L2.75049 37.7595L5.30546 46.5287L101.766 18.424L99.2113 9.65482Z" fill="#3F3D56"/>
<path d="M14.2755 78.04L0.0579387 29.2426C-0.0474663 28.8808 -0.00483301 28.492 0.176453 28.1616C0.35774 27.8313 0.66283 27.5864 1.02461 27.481L95.147 0.0576532C95.5088 -0.0473977 95.8974 -0.00461999 96.2277 0.176601C96.5579 0.357823 96.8028 0.662679 96.9085 1.02425L109.504 44.2553L109.114 44.3688L96.5188 1.13783C96.4431 0.879672 96.2682 0.66204 96.0323 0.532616C95.7965 0.403192 95.5189 0.372526 95.2605 0.447343L1.13817 27.8707C0.879749 27.946 0.661828 28.1209 0.532338 28.3569C0.402848 28.5928 0.372395 28.8706 0.447681 29.129L14.6652 77.9264L14.2755 78.04Z" fill="#3F3D56"/>
<path d="M88.6715 44.4556C88.3859 44.4553 88.1081 44.3625 87.8797 44.1912C87.6512 44.0198 87.4844 43.7791 87.4042 43.505L85.0196 35.3205C84.9221 34.9846 84.9619 34.6237 85.1302 34.3171C85.2984 34.0104 85.5815 33.783 85.9172 33.6848L94.1018 31.3002C94.4377 31.2027 94.7986 31.2425 95.1052 31.4108C95.4119 31.5791 95.6392 31.8622 95.7374 32.1979L98.1221 40.3824C98.2195 40.7183 98.1798 41.0792 98.0115 41.3859C97.8432 41.6925 97.5602 41.9199 97.2245 42.0181L89.0399 44.4027C88.9202 44.4377 88.7962 44.4555 88.6715 44.4556V44.4556Z" fill="#1A3C65"/>
<path d="M14.0552 29.3929C14.0307 29.3088 14.0015 29.2262 13.9679 29.1453C13.739 28.5899 13.313 28.1386 12.7717 27.8782C12.2303 27.6178 11.6118 27.5667 11.0351 27.7346C10.4583 27.9025 9.96392 28.2777 9.64695 28.788C9.32997 29.2982 9.21276 29.9077 9.31782 30.4991C9.33258 30.5854 9.35223 30.6708 9.37669 30.7549C9.52491 31.2608 9.83303 31.7051 10.2549 32.0212C10.6768 32.3374 11.1897 32.5084 11.7169 32.5086C11.9471 32.5091 12.1761 32.4763 12.3969 32.4111C13.0166 32.2301 13.5391 31.8107 13.85 31.2448C14.1609 30.679 14.2347 30.0131 14.0552 29.3929V29.3929ZM12.2832 32.0214C11.7665 32.1714 11.2113 32.1103 10.7395 31.8516C10.2677 31.5929 9.91773 31.1576 9.76639 30.6412C9.74262 30.5571 9.72363 30.4717 9.7095 30.3855C9.63337 29.8982 9.73734 29.3998 10.002 28.9836C10.2666 28.5674 10.6738 28.2618 11.1474 28.124C11.621 27.9862 12.1285 28.0256 12.5752 28.2349C13.0218 28.4441 13.3769 28.8089 13.5741 29.261C13.6109 29.3404 13.6414 29.4225 13.6655 29.5066C13.8153 30.0234 13.7538 30.5785 13.4947 31.05C13.2355 31.5215 12.7998 31.8709 12.2832 32.0214V32.0214Z" fill="#1A3C65"/>
<path d="M8.08119 31.1324C7.9513 30.6863 7.96378 30.2108 8.11689 29.7722C8.26999 29.3335 8.55611 28.9535 8.93538 28.6851C8.58005 28.6678 8.22573 28.7357 7.90193 28.883C7.57813 29.0304 7.29423 29.253 7.07387 29.5322C6.85352 29.8115 6.70309 30.1394 6.63512 30.4886C6.56715 30.8378 6.58361 31.1982 6.68313 31.5397C6.78264 31.8813 6.96232 32.1941 7.20722 32.4522C7.45211 32.7102 7.75512 32.906 8.091 33.0232C8.42688 33.1404 8.78591 33.1757 9.13818 33.1261C9.49045 33.0764 9.82576 32.9434 10.1162 32.7379C9.65212 32.7152 9.20668 32.5484 8.84192 32.2606C8.47715 31.9728 8.21123 31.5785 8.08119 31.1324V31.1324Z" fill="#1A3C65"/>
<path d="M71.178 41.1918C71.1348 41.0364 71.0614 40.8912 70.962 40.7642C70.8626 40.6373 70.7392 40.5312 70.5987 40.452C70.4583 40.3728 70.3036 40.3221 70.1435 40.3028C69.9835 40.2834 69.8212 40.2958 69.6659 40.3393L56.1905 44.1085L54.7393 44.5144H63.8527L65.304 44.1085L70.3276 42.7039C70.6407 42.6159 70.9062 42.4073 71.0656 42.1238C71.2251 41.8403 71.2655 41.5051 71.178 41.1918V41.1918Z" fill="#CCCCCC"/>
<path d="M61.6442 38.3765C61.5564 38.0632 61.3477 37.7977 61.0642 37.6382C60.7806 37.4787 60.4453 37.4384 60.132 37.5261L39.9119 43.1809C39.6293 43.2609 39.3847 43.4393 39.222 43.6838C39.0594 43.9283 38.9895 44.2229 39.0249 44.5144H44.2595L45.7127 44.1085L60.7937 39.8907C61.1071 39.8024 61.3727 39.5934 61.5322 39.3095C61.6916 39.0256 61.7319 38.6901 61.6442 38.3765V38.3765Z" fill="#CCCCCC"/>
<path d="M113.7 44.108H15.6635C15.2868 44.1085 14.9257 44.2583 14.6593 44.5246C14.3929 44.791 14.2431 45.1522 14.2427 45.5288V103.579C14.2431 103.956 14.3929 104.317 14.6593 104.583C14.9256 104.85 15.2868 105 15.6635 105H113.7C114.076 105 114.437 104.85 114.704 104.583C114.97 104.317 115.12 103.956 115.12 103.579V45.5288C115.12 45.1522 114.97 44.791 114.704 44.5247C114.437 44.2583 114.076 44.1085 113.7 44.108V44.108ZM114.714 103.579C114.714 103.848 114.607 104.106 114.417 104.297C114.227 104.487 113.969 104.594 113.7 104.594H15.6635C15.3944 104.594 15.1363 104.487 14.946 104.297C14.7557 104.106 14.6487 103.848 14.6486 103.579V45.5288C14.6487 45.2597 14.7557 45.0017 14.946 44.8114C15.1363 44.6211 15.3944 44.5141 15.6635 44.514H113.7C113.969 44.5141 114.227 44.6211 114.417 44.8114C114.607 45.0017 114.714 45.2597 114.714 45.5288V103.579Z" fill="#3F3D56"/>
<path d="M25.2025 52.0244C24.7208 52.0244 24.2499 51.8816 23.8493 51.614C23.4488 51.3463 23.1366 50.9659 22.9523 50.5209C22.7679 50.0758 22.7197 49.5861 22.8136 49.1136C22.9076 48.6411 23.1396 48.2071 23.4802 47.8665C23.8209 47.5259 24.2549 47.2939 24.7273 47.1999C25.1998 47.1059 25.6896 47.1541 26.1346 47.3385C26.5797 47.5228 26.9601 47.835 27.2277 48.2356C27.4954 48.6361 27.6382 49.107 27.6382 49.5888C27.6375 50.2345 27.3806 50.8536 26.924 51.3102C26.4674 51.7669 25.8483 52.0237 25.2025 52.0244V52.0244ZM25.2025 47.559C24.8011 47.559 24.4087 47.6781 24.0749 47.9011C23.7411 48.1241 23.4809 48.4411 23.3273 48.812C23.1737 49.1829 23.1335 49.591 23.2118 49.9848C23.2901 50.3785 23.4834 50.7401 23.7673 51.024C24.0512 51.3079 24.4128 51.5012 24.8065 51.5795C25.2003 51.6578 25.6084 51.6176 25.9793 51.464C26.3502 51.3104 26.6672 51.0502 26.8902 50.7164C27.1132 50.3826 27.2323 49.9902 27.2323 49.5888C27.2316 49.0506 27.0176 48.5347 26.6371 48.1542C26.2566 47.7737 25.7407 47.5596 25.2025 47.559V47.559Z" fill="#1A3C65"/>
<path d="M21.4167 49.5887C21.4167 49.1241 21.5617 48.6711 21.8314 48.2928C22.1011 47.9145 22.4821 47.6297 22.9213 47.4781C22.585 47.3621 22.2259 47.3281 21.8738 47.379C21.5217 47.4299 21.1868 47.5642 20.8972 47.7707C20.6075 47.9772 20.3713 48.2499 20.2084 48.5662C20.0455 48.8824 19.9604 49.233 19.9604 49.5888C19.9604 49.9445 20.0455 50.2951 20.2084 50.6113C20.3713 50.9276 20.6075 51.2003 20.8972 51.4068C21.1868 51.6133 21.5217 51.7476 21.8738 51.7985C22.2259 51.8494 22.585 51.8154 22.9213 51.6994C22.4821 51.5478 22.1011 51.263 21.8314 50.8847C21.5617 50.5064 21.4167 50.0534 21.4167 49.5887V49.5887Z" fill="#1A3C65"/>
<path d="M35.0758 78.3659C34.5915 78.3654 34.1271 78.1727 33.7847 77.8303C33.4422 77.4878 33.2496 77.0235 33.249 76.5392V71.0589C33.249 70.5744 33.4415 70.1097 33.7841 69.7672C34.1266 69.4246 34.5913 69.2321 35.0758 69.2321C35.5603 69.2321 36.0249 69.4246 36.3675 69.7672C36.7101 70.1097 36.9025 70.5744 36.9025 71.0589V76.5392C36.902 77.0235 36.7093 77.4878 36.3669 77.8302C36.0244 78.1727 35.5601 78.3654 35.0758 78.3659V78.3659Z" fill="#1A3C65"/>
<path d="M39.9471 78.3659C39.4628 78.3654 38.9985 78.1727 38.656 77.8303C38.3136 77.4878 38.1209 77.0235 38.1204 76.5392V71.0589C38.1204 70.5744 38.3128 70.1097 38.6554 69.7672C38.998 69.4246 39.4626 69.2321 39.9471 69.2321C40.4316 69.2321 40.8962 69.4246 41.2388 69.7672C41.5814 70.1097 41.7739 70.5744 41.7739 71.0589V76.5392C41.7733 77.0235 41.5807 77.4878 41.2382 77.8302C40.8958 78.1727 40.4314 78.3654 39.9471 78.3659V78.3659Z" fill="#1A3C65"/>
<path d="M44.8185 78.3659C44.3341 78.3654 43.8698 78.1727 43.5274 77.8303C43.1849 77.4878 42.9923 77.0235 42.9917 76.5392V71.0589C42.9917 70.5744 43.1842 70.1097 43.5267 69.7672C43.8693 69.4246 44.334 69.2321 44.8185 69.2321C45.3029 69.2321 45.7676 69.4246 46.1102 69.7672C46.4528 70.1097 46.6452 70.5744 46.6452 71.0589V76.5392C46.6447 77.0235 46.452 77.4878 46.1096 77.8302C45.7671 78.1727 45.3028 78.3654 44.8185 78.3659V78.3659Z" fill="#1A3C65"/>
<path d="M52.3287 78.3659C51.8444 78.3654 51.3801 78.1727 51.0376 77.8303C50.6952 77.4878 50.5025 77.0235 50.502 76.5392V71.0589C50.502 70.5744 50.6944 70.1097 51.037 69.7672C51.3796 69.4246 51.8442 69.2321 52.3287 69.2321C52.8132 69.2321 53.2778 69.4246 53.6204 69.7672C53.963 70.1097 54.1555 70.5744 54.1555 71.0589V76.5392C54.1549 77.0235 53.9623 77.4878 53.6198 77.8302C53.2774 78.1727 52.813 78.3654 52.3287 78.3659V78.3659Z" fill="#1A3C65"/>
<path d="M57.2 78.3659C56.7157 78.3654 56.2514 78.1727 55.909 77.8303C55.5665 77.4878 55.3738 77.0235 55.3733 76.5392V71.0589C55.3733 70.5744 55.5658 70.1097 55.9083 69.7672C56.2509 69.4246 56.7156 69.2321 57.2 69.2321C57.6845 69.2321 58.1492 69.4246 58.4918 69.7672C58.8343 70.1097 59.0268 70.5744 59.0268 71.0589V76.5392C59.0263 77.0235 58.8336 77.4878 58.4912 77.8302C58.1487 78.1727 57.6844 78.3654 57.2 78.3659V78.3659Z" fill="#1A3C65"/>
<path d="M62.0711 78.3659C61.5868 78.3654 61.1225 78.1727 60.7801 77.8303C60.4376 77.4878 60.2449 77.0235 60.2444 76.5392V71.0589C60.2444 70.5744 60.4368 70.1097 60.7794 69.7672C61.122 69.4246 61.5867 69.2321 62.0711 69.2321C62.5556 69.2321 63.0203 69.4246 63.3629 69.7672C63.7054 70.1097 63.8979 70.5744 63.8979 71.0589V76.5392C63.8973 77.0235 63.7047 77.4878 63.3622 77.8302C63.0198 78.1727 62.5555 78.3654 62.0711 78.3659V78.3659Z" fill="#1A3C65"/>
<path d="M69.5812 78.3659C69.0968 78.3654 68.6325 78.1727 68.2901 77.8303C67.9476 77.4878 67.7549 77.0235 67.7544 76.5392V71.0589C67.7544 70.5744 67.9469 70.1097 68.2894 69.7672C68.632 69.4246 69.0967 69.2321 69.5812 69.2321C70.0656 69.2321 70.5303 69.4246 70.8729 69.7672C71.2154 70.1097 71.4079 70.5744 71.4079 71.0589V76.5392C71.4074 77.0235 71.2147 77.4878 70.8723 77.8302C70.5298 78.1727 70.0655 78.3654 69.5812 78.3659V78.3659Z" fill="#1A3C65"/>
<path d="M74.4525 78.3659C73.9682 78.3654 73.5039 78.1727 73.1614 77.8303C72.8189 77.4878 72.6263 77.0235 72.6257 76.5392V71.0589C72.6257 70.5744 72.8182 70.1097 73.1608 69.7672C73.5034 69.4246 73.968 69.2321 74.4525 69.2321C74.937 69.2321 75.4016 69.4246 75.7442 69.7672C76.0868 70.1097 76.2793 70.5744 76.2793 71.0589V76.5392C76.2787 77.0235 76.0861 77.4878 75.7436 77.8302C75.4011 78.1727 74.9368 78.3654 74.4525 78.3659V78.3659Z" fill="#1A3C65"/>
<path d="M79.3241 78.3659C78.8398 78.3654 78.3754 78.1727 78.033 77.8303C77.6905 77.4878 77.4979 77.0235 77.4973 76.5392V71.0589C77.4973 70.5744 77.6898 70.1097 78.0324 69.7672C78.3749 69.4246 78.8396 69.2321 79.3241 69.2321C79.8086 69.2321 80.2732 69.4246 80.6158 69.7672C80.9584 70.1097 81.1508 70.5744 81.1508 71.0589V76.5392C81.1503 77.0235 80.9576 77.4878 80.6152 77.8302C80.2727 78.1727 79.8084 78.3654 79.3241 78.3659V78.3659Z" fill="#1A3C65"/>
<path d="M86.8341 78.3659C86.3498 78.3654 85.8855 78.1727 85.543 77.8303C85.2005 77.4878 85.0079 77.0235 85.0073 76.5392V71.0589C85.0073 70.5744 85.1998 70.1097 85.5424 69.7672C85.885 69.4246 86.3496 69.2321 86.8341 69.2321C87.3186 69.2321 87.7832 69.4246 88.1258 69.7672C88.4684 70.1097 88.6608 70.5744 88.6608 71.0589V76.5392C88.6603 77.0235 88.4677 77.4878 88.1252 77.8302C87.7827 78.1727 87.3184 78.3654 86.8341 78.3659V78.3659Z" fill="#1A3C65"/>
<path d="M91.7054 78.3659C91.2211 78.3654 90.7568 78.1727 90.4143 77.8303C90.0719 77.4878 89.8792 77.0235 89.8787 76.5392V71.0589C89.8787 70.5744 90.0711 70.1097 90.4137 69.7672C90.7563 69.4246 91.2209 69.2321 91.7054 69.2321C92.1899 69.2321 92.6545 69.4246 92.9971 69.7672C93.3397 70.1097 93.5322 70.5744 93.5322 71.0589V76.5392C93.5316 77.0235 93.339 77.4878 92.9965 77.8302C92.6541 78.1727 92.1897 78.3654 91.7054 78.3659V78.3659Z" fill="#1A3C65"/>
<path d="M96.5768 78.3659C96.0924 78.3654 95.6281 78.1727 95.2857 77.8303C94.9432 77.4878 94.7506 77.0235 94.75 76.5392V71.0589C94.75 70.5744 94.9425 70.1097 95.285 69.7672C95.6276 69.4246 96.0923 69.2321 96.5768 69.2321C97.0612 69.2321 97.5259 69.4246 97.8685 69.7672C98.2111 70.1097 98.4035 70.5744 98.4035 71.0589V76.5392C98.403 77.0235 98.2103 77.4878 97.8679 77.8302C97.5254 78.1727 97.0611 78.3654 96.5768 78.3659V78.3659Z" fill="#1A3C65"/>
<path d="M47.4608 98.6971H21.1879C20.8624 98.6971 20.5502 98.5678 20.32 98.3376C20.0898 98.1074 19.9604 97.7952 19.9604 97.4697C19.9604 97.1441 20.0898 96.8319 20.32 96.6017C20.5502 96.3715 20.8624 96.2422 21.1879 96.2422H47.4608C47.7864 96.2422 48.0986 96.3715 48.3288 96.6017C48.5589 96.8319 48.6883 97.1441 48.6883 97.4697C48.6883 97.7952 48.5589 98.1074 48.3288 98.3376C48.0986 98.5678 47.7864 98.6971 47.4608 98.6971Z" fill="#E6E6E6"/>
<path d="M39.0374 93.4198H29.6112C29.2857 93.4198 28.9735 93.2905 28.7433 93.0603C28.5131 92.8301 28.3838 92.5179 28.3838 92.1924C28.3838 91.8668 28.5131 91.5546 28.7433 91.3244C28.9735 91.0942 29.2857 90.9649 29.6112 90.9649H39.0374C39.3629 90.9649 39.6751 91.0942 39.9053 91.3244C40.1355 91.5546 40.2648 91.8668 40.2648 92.1924C40.2648 92.5179 40.1355 92.8301 39.9053 93.0603C39.6751 93.2905 39.3629 93.4198 39.0374 93.4198V93.4198Z" fill="#E6E6E6"/>
<path d="M114.641 56.2418H14.5754V56.6478H114.641V56.2418Z" fill="#3F3D56"/>
</g>
<defs>
<clipPath id="clip0">
<rect width="115.12" height="105" fill="white"/>
</clipPath>
</defs>
</svg>
