<svg width="445" height="91" viewBox="0 0 445 91" fill="none" xmlns="http://www.w3.org/2000/svg">
<path d="M74.6 18.4C80.4667 18.4 84.9667 19.8667 88.1 22.8C91.2333 25.6667 92.8 29.7 92.8 34.9C92.8 36.7 92.6 38.6667 92.2 40.8L86.1 71H81.1L87.2 40.8C87.5333 39.2667 87.7 37.5667 87.7 35.7C87.7 31.6333 86.5 28.5 84.1 26.3C81.7 24.0333 78.2 22.9 73.6 22.9C67.8667 22.9 63.0667 24.5 59.2 27.7C55.4 30.8333 52.9 35.4 51.7 41.4L45.7 71H40.7L46.8 40.8C47.1333 39.2667 47.3 37.5667 47.3 35.7C47.3 31.6333 46.1 28.5 43.7 26.3C41.3 24.0333 37.8 22.9 33.2 22.9C27.4 22.9 22.5667 24.6 18.7 28C14.8333 31.3333 12.2667 36.2 11 42.6L5.3 71H0.3L10.7 18.8H15.6L13.6 28.6C16.0667 25.1333 19.0667 22.5667 22.6 20.9C26.1333 19.2333 30.1 18.4 34.5 18.4C39.3 18.4 43.1667 19.4333 46.1 21.5C49.0333 23.5 50.9667 26.3667 51.9 30.1C54.5 26.2333 57.7333 23.3333 61.6 21.4C65.4667 19.4 69.8 18.4 74.6 18.4ZM164.443 18.8L155.143 65.4C153.41 74.2667 150.143 80.7 145.343 84.7C140.543 88.7667 133.91 90.8 125.443 90.8C120.643 90.8 116.31 90.0667 112.443 88.6C108.576 87.2 105.376 85.2 102.843 82.6L106.043 78.9C108.176 81.2333 110.943 83.0333 114.343 84.3C117.743 85.6333 121.576 86.3 125.843 86.3C132.776 86.3 138.21 84.6667 142.143 81.4C146.076 78.1333 148.71 73.0667 150.043 66.2L151.643 58.4C149.043 61.8 145.81 64.4333 141.943 66.3C138.076 68.1667 133.776 69.1 129.043 69.1C122.043 69.1 116.476 67.2333 112.343 63.5C108.276 59.7667 106.243 54.7 106.243 48.3C106.243 42.7 107.51 37.6333 110.043 33.1C112.576 28.5 116.11 24.9 120.643 22.3C125.176 19.7 130.276 18.4 135.943 18.4C141.41 18.4 145.976 19.5667 149.643 21.9C153.31 24.2333 155.776 27.6333 157.043 32.1L159.643 18.8H164.443ZM129.943 64.6C134.676 64.6 138.91 63.5333 142.643 61.4C146.376 59.2 149.31 56.2 151.443 52.4C153.576 48.5333 154.643 44.2 154.643 39.4C154.643 34.2 152.976 30.1667 149.643 27.3C146.376 24.3667 141.81 22.9 135.943 22.9C131.21 22.9 126.976 24 123.243 26.2C119.51 28.3333 116.576 31.3333 114.443 35.2C112.31 39 111.243 43.3 111.243 48.1C111.243 53.3 112.876 57.3667 116.143 60.3C119.476 63.1667 124.076 64.6 129.943 64.6ZM189.707 12.5V30.1H211.307C213.04 30.1 214.474 30.6667 215.607 31.8C216.807 32.8667 217.407 34.2667 217.407 36C217.407 37.4667 216.807 38.7667 215.607 39.9C214.474 41.0333 213.04 41.6 211.307 41.6H189.707V64.9C189.707 66.6333 189.074 68.1 187.807 69.3C186.607 70.4333 185.174 71 183.507 71C181.64 71 180.107 70.4333 178.907 69.3C177.774 68.1667 177.207 66.7 177.207 64.9V7.09999C177.207 5.36666 177.774 3.93333 178.907 2.8C180.107 1.6 181.574 0.999995 183.307 0.999995H215.807C217.54 0.999995 218.974 1.56666 220.107 2.7C221.307 3.76666 221.907 5.16666 221.907 6.9C221.907 8.36666 221.307 9.66666 220.107 10.8C218.974 11.9333 217.54 12.5 215.807 12.5H189.707ZM296.88 36C296.88 42.6 295.414 48.6667 292.48 54.2C289.547 59.6667 285.48 64 280.28 67.2C275.147 70.4 269.347 72 262.88 72C256.414 72 250.58 70.4 245.38 67.2C240.247 64 236.214 59.6667 233.28 54.2C230.414 48.6667 228.98 42.6 228.98 36C228.98 29.4 230.414 23.3667 233.28 17.9C236.214 12.3667 240.247 8 245.38 4.79999C250.58 1.6 256.414 -3.8147e-06 262.88 -3.8147e-06C269.347 -3.8147e-06 275.147 1.6 280.28 4.79999C285.48 8 289.547 12.3667 292.48 17.9C295.414 23.3667 296.88 29.4 296.88 36ZM283.88 36C283.88 31.5333 282.98 27.5 281.18 23.9C279.38 20.2333 276.88 17.3333 273.68 15.2C270.48 13.0667 266.88 12 262.88 12C258.814 12 255.18 13.0667 251.98 15.2C248.847 17.2667 246.38 20.1333 244.58 23.8C242.847 27.4667 241.98 31.5333 241.98 36C241.98 40.4667 242.847 44.5333 244.58 48.2C246.38 51.8667 248.847 54.7667 251.98 56.9C255.18 58.9667 258.814 60 262.88 60C266.88 60 270.48 58.9333 273.68 56.8C276.88 54.6667 279.38 51.8 281.18 48.2C282.98 44.5333 283.88 40.4667 283.88 36ZM372.759 36C372.759 42.6 371.293 48.6667 368.359 54.2C365.426 59.6667 361.359 64 356.159 67.2C351.026 70.4 345.226 72 338.759 72C332.293 72 326.459 70.4 321.259 67.2C316.126 64 312.093 59.6667 309.159 54.2C306.293 48.6667 304.859 42.6 304.859 36C304.859 29.4 306.293 23.3667 309.159 17.9C312.093 12.3667 316.126 8 321.259 4.79999C326.459 1.6 332.293 -3.8147e-06 338.759 -3.8147e-06C345.226 -3.8147e-06 351.026 1.6 356.159 4.79999C361.359 8 365.426 12.3667 368.359 17.9C371.293 23.3667 372.759 29.4 372.759 36ZM359.759 36C359.759 31.5333 358.859 27.5 357.059 23.9C355.259 20.2333 352.759 17.3333 349.559 15.2C346.359 13.0667 342.759 12 338.759 12C334.693 12 331.059 13.0667 327.859 15.2C324.726 17.2667 322.259 20.1333 320.459 23.8C318.726 27.4667 317.859 31.5333 317.859 36C317.859 40.4667 318.726 44.5333 320.459 48.2C322.259 51.8667 324.726 54.7667 327.859 56.9C331.059 58.9667 334.693 60 338.759 60C342.759 60 346.359 58.9333 349.559 56.8C352.759 54.6667 355.259 51.8 357.059 48.2C358.859 44.5333 359.759 40.4667 359.759 36ZM414.238 0.999995C420.505 0.999995 425.872 2.56666 430.338 5.69999C434.872 8.76666 438.305 12.9667 440.638 18.3C443.038 23.5667 444.238 29.4667 444.238 36C444.238 42.5333 443.038 48.4667 440.638 53.8C438.305 59.0667 434.872 63.2667 430.338 66.4C425.872 69.4667 420.505 71 414.238 71H390.338C388.605 71 387.138 70.4333 385.938 69.3C384.805 68.1 384.238 66.6333 384.238 64.9V7.09999C384.238 5.36666 384.805 3.93333 385.938 2.8C387.138 1.6 388.605 0.999995 390.338 0.999995H414.238ZM413.238 59.5C419.238 59.5 423.738 57.3 426.738 52.9C429.738 48.4333 431.238 42.8 431.238 36C431.238 29.2 429.705 23.6 426.638 19.2C423.638 14.7333 419.172 12.5 413.238 12.5H396.738V59.5H413.238Z" fill="#112A53"/>
</svg>
